<svg width="6" height="4" viewBox="0 0 6 4" fill="none" xmlns="http://www.w3.org/2000/svg">
<path fill-rule="evenodd" clip-rule="evenodd" d="M5.91 1.45C5.86 1.26 5.79 1.07 5.7 0.889999C5.65 0.789999 5.55 0.639999 5.41 0.529999C5.29 0.439999 5.15 0.369995 4.97 0.369995H1.35C1.18 0.369995 1.03 0.439999 0.910004 0.529999C0.770004 0.639999 0.670003 0.789999 0.620003 0.889999C0.530003 1.07 0.460004 1.26 0.410004 1.45C0.360004 1.64 0.339996 1.83999 0.339996 2.03999C0.339996 2.23999 0.360004 2.44 0.410004 2.63C0.460004 2.82 0.530003 3.01 0.620003 3.19C0.670003 3.29 0.770004 3.44 0.910004 3.55C1.03 3.64 1.17 3.71001 1.35 3.71001H4.97C5.14 3.71001 5.29 3.64 5.41 3.55C5.55 3.44 5.65 3.29 5.7 3.19C5.79 3.01 5.86 2.82 5.91 2.63C5.96 2.44 5.98 2.23999 5.98 2.03999C5.98 1.83999 5.96 1.64 5.91 1.45Z" fill="white"/>
<path fill-rule="evenodd" clip-rule="evenodd" d="M5.54 0.970001C5.49 0.870001 5.3 0.550003 4.97 0.550003H1.35C1.02 0.550003 0.829999 0.870001 0.779999 0.970001C0.609999 1.3 0.529999 1.66999 0.529999 2.03999C0.529999 2.40999 0.619999 2.78 0.779999 3.11C0.829999 3.21 1.02 3.53 1.35 3.53H4.97C5.3 3.53 5.49 3.21 5.54 3.11C5.71 2.78 5.79 2.40999 5.79 2.03999C5.79 1.66999 5.7 1.3 5.54 0.970001Z" fill="#0055B8"/>
<path d="M1.71 2.64999V1.82001C1.71 1.82001 1.73 1.74 1.78 1.69C1.82 1.66 1.86 1.63 1.9 1.62H1.69V1.49001H1.99C2.09 1.49001 2.17 1.49 2.22 1.5C2.46 1.55 2.59 1.72 2.59 2.03C2.59 2.31 2.5 2.49 2.32 2.59C2.27 2.62 2.22 2.63 2.16 2.64C2.11 2.64 2.05 2.64999 1.96 2.64999H1.71ZM1.95 2.53H1.98C2.05 2.53 2.1 2.53 2.13 2.52C2.27 2.48 2.34 2.33 2.34 2.06C2.34 1.91 2.32 1.80001 2.28 1.74001C2.25 1.69001 2.21 1.65999 2.16 1.64999C2.13 1.64999 2.08 1.64 2.01 1.64H1.96V2.55L1.95 2.53Z" fill="white"/>
<path d="M2.96 2.64999V1.83C2.96 1.83 2.96 1.78 2.99 1.75C3.03 1.69 3.08 1.65 3.15 1.63H2.66V1.49001H3.5V1.63H3.19V2.64999H2.95H2.96Z" fill="white"/>
<path d="M4.65 1.53L4.6 1.67999C4.54 1.62999 4.47 1.61 4.39 1.61C4.27 1.61 4.19 1.68001 4.15 1.82001C4.13 1.88001 4.12 1.97001 4.12 2.07001C4.15 2.02001 4.18 1.99001 4.22 1.96001C4.26 1.94001 4.31 1.92 4.37 1.92C4.46 1.92 4.54 1.94999 4.6 2.00999C4.66 2.06999 4.7 2.16 4.7 2.27C4.7 2.39 4.66 2.48 4.59 2.56C4.52 2.63 4.42 2.67 4.31 2.67C4.15 2.67 4.04 2.61 3.97 2.48C3.91 2.38 3.88 2.25 3.88 2.09C3.88 1.87 3.94 1.71001 4.05 1.60001C4.14 1.51001 4.25 1.47 4.38 1.47C4.46 1.47 4.55 1.49 4.64 1.53H4.65ZM4.32 2.05C4.25 2.05 4.21 2.07999 4.18 2.14999C4.16 2.18999 4.16 2.24 4.16 2.3C4.16 2.36 4.16 2.41 4.19 2.45C4.22 2.51 4.26 2.55 4.33 2.55C4.39 2.55 4.43 2.53 4.46 2.48C4.49 2.43 4.5 2.37 4.5 2.3C4.5 2.2 4.48 2.14001 4.44 2.10001C4.41 2.08001 4.38 2.06 4.34 2.06L4.32 2.05Z" fill="white"/>
</svg>
